# xmcd
# 
# Track frame offsets:
#     150
#     42891
#     140743
#     239656
# 
# Disc length: 4633
# 
# Revision: 0
# Processed by: cddbd v1.5.2PL0 Copyright (c) Steve Scherf et al.
# Submitted via: fre:ac v1.0.17
# 
DISCID=37121704
DTITLE=Zach Anner - It at birth you don't succeed - Disc 4
DYEAR=0
DGENRE=Audiobook
TTITLE0=It at birth you don't succeed
TTITLE1=It at birth you don't succeed
TTITLE2=It at birth you don't succeed
TTITLE3=It at birth you don't succeed
EXTD=
EXTT0=
EXTT1=
EXTT2=
EXTT3=
PLAYORDER=
